<?xml version="1.0" encoding="UTF-8"?>
<svg version="1.1" xmlns="http://www.w3.org/2000/svg" width="64" height="64">
<path d="M0 0 C5.95987494 4.7821751 9.84211163 11.02186887 11.8125 18.375 C12.60453912 27.26241567 12.71181144 35.60701278 7.8125 43.375 C7.461875 43.99632812 7.11125 44.61765625 6.75 45.2578125 C2.92745578 51.38981052 -2.84294086 54.932249 -9.375 57.75 C-20.55230005 59.58234427 -30.86006709 59.20080197 -40.375 52.75 C-46.33487494 47.9678249 -50.21711163 41.72813113 -52.1875 34.375 C-52.97953912 25.48758433 -53.08681144 17.14298722 -48.1875 9.375 C-47.836875 8.75367188 -47.48625 8.13234375 -47.125 7.4921875 C-43.30245578 1.36018948 -37.53205914 -2.182249 -31 -5 C-19.82269995 -6.83234427 -9.51493291 -6.45080197 0 0 Z " fill="#36462A" transform="translate(52.1875,5.625)"/>
<path d="M0 0 C1.5 1.3125 1.5 1.3125 3 3 C3 3.99 3 4.98 3 6 C2.01 6.66 1.02 7.32 0 8 C-0.76238427 10.34948018 -0.76238427 10.34948018 -1.125 13 C-1.93043478 17.86086957 -1.93043478 17.86086957 -3 20 C-1.35 20.33 0.3 20.66 2 21 C1.45276317 24.37462715 0.9451 26.08235 -1 29 C-2.03125 28.5875 -3.0625 28.175 -4.125 27.75 C-8.06321549 26.56099329 -8.06321549 26.56099329 -11.4375 28.875 C-12.283125 29.57625 -13.12875 30.2775 -14 31 C-13.34 31.61875 -12.68 32.2375 -12 32.875 C-10 35 -10 35 -10 37 C-16.76174228 40.70285887 -23.36675866 40.63651232 -31 41 C-31 33.08 -31 25.16 -31 17 C-21.125 16.625 -21.125 16.625 -18.01611328 16.52197266 C-17.20899902 16.4863623 -16.40188477 16.45075195 -15.5703125 16.4140625 C-14.74289551 16.3826416 -13.91547852 16.3512207 -13.06298828 16.31884766 C-10.78013915 16.17400863 -10.78013915 16.17400863 -9 14 C-8.773125 13.13375 -8.54625 12.2675 -8.3125 11.375 C-6.4977305 6.70844986 -3.41391628 3.59647865 0 0 Z " fill="#222F1A" transform="translate(56,19)"/>
<path d="M0 0 C0 13.86 0 27.72 0 42 C-1.65 41.01 -3.3 40.02 -5 39 C-5.65942383 36.08911133 -5.65942383 36.08911133 -5.70703125 32.58203125 C-5.73603516 31.32841797 -5.76503906 30.07480469 -5.79492188 28.78320312 C-5.80072266 27.47287109 -5.80652344 26.16253906 -5.8125 24.8125 C-5.83564287 23.47717269 -5.86100781 22.14188192 -5.88867188 20.80664062 C-5.94768232 17.53746177 -5.98386229 14.26962628 -6 11 C-8.52128356 13.52128356 -8.29353069 14.51239013 -8.4140625 18.0078125 C-8.47207031 19.48701172 -8.47207031 19.48701172 -8.53125 20.99609375 C-8.57765625 22.54490234 -8.57765625 22.54490234 -8.625 24.125 C-8.68300781 25.68541016 -8.68300781 25.68541016 -8.7421875 27.27734375 C-8.83664766 29.85138311 -8.92221214 32.42541155 -9 35 C-12.16115776 33.63016497 -12.9927092 33.0109362 -15 30 C-15.4140625 27.73828125 -15.4140625 27.73828125 -15.625 25.3125 C-15.69976563 24.50425781 -15.77453125 23.69601563 -15.8515625 22.86328125 C-15.90054687 22.24839844 -15.94953125 21.63351563 -16 21 C-16.33 21.66 -16.66 22.32 -17 23 C-17.66 23 -18.32 23 -19 23 C-21.22491713 17.29864985 -21.94249897 12.67041376 -19.875 6.8125 C-14.40650867 -1.390237 -10.40694216 0 0 0 Z " fill="#CED8C2" transform="translate(24,19)"/>
<path d="M0 0 C3.125 2.1875 3.125 2.1875 5.125 5.1875 C2.9375 7.25 2.9375 7.25 0.125 9.1875 C-1.55365628 8.921038 -3.22007063 8.57492438 -4.875 8.1875 C-7.0772394 8.04340264 -9.2824591 7.94159948 -11.48828125 7.87109375 C-12.73544922 7.82919922 -13.98261719 7.78730469 -15.26757812 7.74414062 C-16.56115234 7.70482422 -17.85472656 7.66550781 -19.1875 7.625 C-20.50041016 7.58181641 -21.81332031 7.53863281 -23.16601562 7.49414062 C-26.40224288 7.38822773 -29.63854458 7.28615115 -32.875 7.1875 C-31.71531651 3.70844954 -31.03752073 3.37611128 -28 1.5625 C-26.95199219 0.92441406 -26.95199219 0.92441406 -25.8828125 0.2734375 C-19.02486089 -3.43572699 -6.9796968 -3.38018588 0 0 Z " fill="#F9FAF8" transform="translate(44.875,4.8125)"/>
<path d="M0 0 C1.04184255 3.38598829 1.23042499 6.46681687 1 10 C0.34 10.66 -0.32 11.32 -1 12 C-1.37051993 14.3245339 -1.37051993 14.3245339 -1.4140625 17.0078125 C-1.47207031 18.48701172 -1.47207031 18.48701172 -1.53125 19.99609375 C-1.57765625 21.54490234 -1.57765625 21.54490234 -1.625 23.125 C-1.68300781 24.68541016 -1.68300781 24.68541016 -1.7421875 26.27734375 C-1.83664766 28.85138311 -1.92221214 31.42541155 -2 34 C-5.16115776 32.63016497 -5.9927092 32.0109362 -8 29 C-8.4140625 26.73828125 -8.4140625 26.73828125 -8.625 24.3125 C-8.69976563 23.50425781 -8.77453125 22.69601563 -8.8515625 21.86328125 C-8.90054687 21.24839844 -8.94953125 20.63351563 -9 20 C-9.33 20.66 -9.66 21.32 -10 22 C-10.66 22 -11.32 22 -12 22 C-13.75747614 17.49646738 -14.19294408 13.82360189 -14 9 C-13.13375 8.7525 -12.2675 8.505 -11.375 8.25 C-6.46538789 6.43162514 -2.92438015 4.38657022 0 0 Z " fill="#81966B" transform="translate(17,20)"/>
<path d="M0 0 C3.08301416 -0.11644156 6.16546123 -0.18732432 9.25 -0.25 C10.12269531 -0.28351562 10.99539062 -0.31703125 11.89453125 -0.3515625 C18.37313204 -0.45047244 18.37313204 -0.45047244 21.58203125 1.85546875 C23.34226663 4.51764292 23.56211184 5.86823402 23 9 C21.4010146 11.09146165 20.54303204 11.9112859 17.9152832 12.34057617 C17.13499756 12.32486572 16.35471191 12.30915527 15.55078125 12.29296875 C14.70322266 12.28330078 13.85566406 12.27363281 12.98242188 12.26367188 C11.66081055 12.2259668 11.66081055 12.2259668 10.3125 12.1875 C9.41982422 12.17396484 8.52714844 12.16042969 7.60742188 12.14648438 C5.40433834 12.11114079 3.20247418 12.06180493 1 12 C1 11.67 1 11.34 1 11 C5.29 11 9.58 11 14 11 C13.67 9.02 13.34 7.04 13 5 C8.71 4.67 4.42 4.34 0 4 C0 2.68 0 1.36 0 0 Z " fill="#DBDFD3" transform="translate(25,24)"/>
<path d="M0 0 C1.32 0.33 2.64 0.66 4 1 C4.33 1.99 4.66 2.98 5 4 C6.01320313 4.02126953 6.01320313 4.02126953 7.046875 4.04296875 C14.42367067 4.4373928 14.42367067 4.4373928 17.625 7.5625 C18.305625 8.7690625 18.305625 8.7690625 19 10 C14.86581409 11.94456928 11.230003 12.37028021 6.6875 12.625 C5.43324219 12.69976562 4.17898437 12.77453125 2.88671875 12.8515625 C1.45779297 12.92503906 1.45779297 12.92503906 0 13 C0 8.71 0 4.42 0 0 Z " fill="#010501" transform="translate(25,47)"/>
<path d="M0 0 C1.03318359 -0.020625 2.06636719 -0.04125 3.13085938 -0.0625 C8.73029341 -0.09123347 12.88692301 0.01294972 17.6875 3.25 C20.13371173 5.85929251 20.6875 6.62031224 20.6875 10.25 C18.2125 9.26 18.2125 9.26 15.6875 8.25 C15.6875 7.59 15.6875 6.93 15.6875 6.25 C12.26347416 5.25557548 8.9419103 4.96611394 5.390625 4.71484375 C4.18535156 4.62783203 2.98007812 4.54082031 1.73828125 4.45117188 C-0.14310547 4.3206543 -0.14310547 4.3206543 -2.0625 4.1875 C-3.96708984 4.05118164 -3.96708984 4.05118164 -5.91015625 3.91210938 C-9.04406113 3.68825903 -12.17816148 3.46768 -15.3125 3.25 C-12.90169453 -1.57161093 -4.66297882 0.02301285 0 0 Z " fill="#1F2A19" transform="translate(26.3125,15.75)"/>
<path d="M0 0 C0.33 0.66 0.66 1.32 1 2 C1.66 2.33 2.32 2.66 3 3 C2.67 3.33 2.34 3.66 2 4 C1.84285346 5.63256758 1.74914586 7.27135338 1.68359375 8.91015625 C1.64169922 9.89951172 1.59980469 10.88886719 1.55664062 11.90820312 C1.51732422 12.94912109 1.47800781 13.99003906 1.4375 15.0625 C1.37272461 16.62967773 1.37272461 16.62967773 1.30664062 18.22851562 C1.20018775 20.81886884 1.0981724 23.40932186 1 26 C-2.875 24.25 -2.875 24.25 -4 22 C-4.17759374 19.21381629 -4.2775623 16.47552812 -4.3125 13.6875 C-4.34150391 12.92759766 -4.37050781 12.16769531 -4.40039062 11.38476562 C-4.44659143 7.29421735 -4.31106994 5.4687108 -1.98046875 1.95703125 C-1.32691406 1.31121094 -0.67335938 0.66539063 0 0 Z " fill="#97A28B" transform="translate(14,28)"/>
<path d="M0 0 C2.94082313 2.56379453 4.77595196 4.31385286 6 8.0625 C6 11 6 11 4.75 13.375 C3 15 3 15 0 15 C-0.26554687 14.44570313 -0.53109375 13.89140625 -0.8046875 13.3203125 C-1.15789063 12.59585937 -1.51109375 11.87140625 -1.875 11.125 C-2.22304688 10.40570313 -2.57109375 9.68640625 -2.9296875 8.9453125 C-3.96557543 6.84864981 -3.96557543 6.84864981 -6 5 C-4.02 3.35 -2.04 1.7 0 0 Z " fill="#829470" transform="translate(50,9)"/>
<path d="M0 0 C1.2065625 0.309375 1.2065625 0.309375 2.4375 0.625 C3.4275 0.295 4.4175 -0.035 5.4375 -0.375 C7.625 0.5625 7.625 0.5625 9.4375 1.625 C8.4475 3.605 7.4575 5.585 6.4375 7.625 C5.365 7.233125 4.2925 6.84125 3.1875 6.4375 C-0.45850313 5.18646876 -0.45850313 5.18646876 -2.8125 7.0625 C-3.39 7.578125 -3.9675 8.09375 -4.5625 8.625 C-5.5525 8.295 -6.5425 7.965 -7.5625 7.625 C-6.5725 6.635 -5.5825 5.645 -4.5625 4.625 C-5.2225 3.965 -5.8825 3.305 -6.5625 2.625 C-3.21877633 -0.47104044 -3.21877633 -0.47104044 0 0 Z " fill="#080D05" transform="translate(48.5625,40.375)"/>
<path d="M0 0 C1.09570312 0.00902344 2.19140625 0.01804687 3.3203125 0.02734375 C4.16335937 0.03894531 5.00640625 0.05054687 5.875 0.0625 C5.875 0.3925 5.875 0.7225 5.875 1.0625 C3.565 1.0625 1.255 1.0625 -1.125 1.0625 C-1.310625 1.619375 -1.49625 2.17625 -1.6875 2.75 C-3.758055 6.08089283 -6.6442634 8.27072841 -10.125 10.0625 C-11.445 10.0625 -12.765 10.0625 -14.125 10.0625 C-13.82679167 6.48400008 -13.38254642 5.30023516 -10.6875 2.8125 C-6.76601304 0.13441135 -4.74347264 -0.05046247 0 0 Z " fill="#ADBC99" transform="translate(18.125,18.9375)"/>
<path d="M0 0 C2.475 0.495 2.475 0.495 5 1 C5 5.95 5 10.9 5 16 C3.35 15.01 1.7 14.02 0 13 C-0.48828125 9.86328125 -0.48828125 9.86328125 -0.3125 6.3125 C-0.26738281 5.13300781 -0.22226562 3.95351563 -0.17578125 2.73828125 C-0.11777344 1.83464844 -0.05976563 0.93101563 0 0 Z " fill="#859A6F" transform="translate(19,45)"/>
<path d="M0 0 C2.24973447 -0.054138 4.49984383 -0.09285491 6.75 -0.125 C8.00296875 -0.14820312 9.2559375 -0.17140625 10.546875 -0.1953125 C13.72820492 -0.01537302 15.36521896 0.31001418 18 2 C18 2.66 18 3.32 18 4 C12.39 4 6.78 4 1 4 C0.67 5.32 0.34 6.64 0 8 C0 5.36 0 2.72 0 0 Z " fill="#4A5F38" transform="translate(24,20)"/>
<path d="M0 0 C0 2.31 0 4.62 0 7 C-3.96 7 -7.92 7 -12 7 C-11 3 -11 3 -8.8125 1.25 C-5.64389285 -0.15826984 -3.42985545 -0.23929224 0 0 Z " fill="#435833" transform="translate(39,28)"/>
<path d="M0 0 C0.39169887 2.66355234 0.40564529 4.39224373 -1.11328125 6.66796875 C-2.36389317 8.1510888 -3.67864514 9.57954352 -5 11 C-4.34 11 -3.68 11 -3 11 C-3.33 13.31 -3.66 15.62 -4 18 C-5.32 17.67 -6.64 17.34 -8 17 C-8.99830834 14.40439832 -8.9890035 12.94501748 -8.4375 10.1875 C-7.20704563 7.45910118 -3.55621411 0 0 0 Z " fill="#26311B" transform="translate(56,20)"/>
<path d="M0 0 C0.66 0.33 1.32 0.66 2 1 C1.67 1.99 1.34 2.98 1 4 C1.33 4.66 1.66 5.32 2 6 C4.54941373 6.31241371 7.00361513 6.51303421 9.5625 6.625 C10.27341797 6.66367188 10.98433594 6.70234375 11.71679688 6.7421875 C13.47742425 6.83671783 15.23867728 6.91945817 17 7 C17 7.33 17 7.66 17 8 C8.42 8 -0.16 8 -9 8 C-7.83917375 4.51752126 -7.09067524 4.11180756 -4.0625 2.25 C-3.35222656 1.80140625 -2.64195313 1.3528125 -1.91015625 0.890625 C-1.27980469 0.59671875 -0.64945313 0.3028125 0 0 Z " fill="#CACEC3" transform="translate(21,4)"/>
<path d="M0 0 C0.33 0 0.66 0 1 0 C1 1.65 1 3.3 1 5 C2.94074861 4.72382467 2.94074861 4.72382467 5 4 C5.66 3.01 6.32 2.02 7 1 C7.66 1.33 8.32 1.66 9 2 C8.67 2.66 8.34 3.32 8 4 C7.7677354 6.71262116 7.58063765 9.40773126 7.4375 12.125 C7.39431641 12.87910156 7.35113281 13.63320313 7.30664062 14.41015625 C7.2005168 16.27321888 7.09974999 18.13658524 7 20 C6.67 20 6.34 20 6 20 C5.67 17.03 5.34 14.06 5 11 C4.67 11.66 4.34 12.32 4 13 C3.34 13 2.68 13 2 13 C0.24252386 8.49646738 -0.19294408 4.82360189 0 0 Z " fill="#6B7F58" transform="translate(3,29)"/>
<path d="M0 0 C0.99 0 1.98 0 3 0 C3.33 1.32 3.66 2.64 4 4 C4.66 4 5.32 4 6 4 C6 5.32 6 6.64 6 8 C-0.27 8 -6.54 8 -13 8 C-13 7.67 -13 7.34 -13 7 C-8.71 7 -4.42 7 0 7 C-0.33 5.02 -0.66 3.04 -1 1 C-0.67 0.67 -0.34 0.34 0 0 Z " fill="#A0AC94" transform="translate(39,28)"/>
<path d="M0 0 C0.33 0.66 0.66 1.32 1 2 C1.66 2 2.32 2 3 2 C3 2.66 3 3.32 3 4 C3.99 4 4.98 4 6 4 C4.75453595 7.73639216 3.36595047 8.18756513 0 10 C-2 8 -4 6 -6 4 C-4.02 2.68 -2.04 1.36 0 0 Z " fill="#515848" transform="translate(48,45)"/>
<path d="M0 0 C0.70125 0.66 1.4025 1.32 2.125 2 C1.795 2.99 1.465 3.98 1.125 5 C0.2278125 4.2884375 0.2278125 4.2884375 -0.6875 3.5625 C-3.85879045 1.29729254 -6.53021656 0.86183546 -10.32421875 0.68359375 C-11.17177734 0.64169922 -12.01933594 0.59980469 -12.89257812 0.55664062 C-13.77365234 0.51732422 -14.65472656 0.47800781 -15.5625 0.4375 C-16.45517578 0.39431641 -17.34785156 0.35113281 -18.26757812 0.30664062 C-20.46990108 0.20064647 -22.67233473 0.09857949 -24.875 0 C-24.875 -0.33 -24.875 -0.66 -24.875 -1 C-17.37443111 -2.42867979 -6.62257234 -4.47300232 0 0 Z " fill="#96A881" transform="translate(43.875,16)"/>
<path d="M0 0 C4.01767292 2.06312934 6.05263153 3.90027691 8 8 C8 8.99 8 9.98 8 11 C8.66 11.33 9.32 11.66 10 12 C9.34 12 8.68 12 8 12 C7.67 12.99 7.34 13.98 7 15 C6.01 14.67 5.02 14.34 4 14 C3.98582031 13.38511719 3.97164062 12.77023438 3.95703125 12.13671875 C3.81117256 9.66500527 3.60506817 7.40322852 3 5 C0.61012067 2.8613923 0.61012067 2.8613923 -2 2 C-1.34 1.34 -0.68 0.68 0 0 Z " fill="#3B4830" transform="translate(42,13)"/>
<path d="M0 0 C0 3.63 0 7.26 0 11 C-1.65 10.67 -3.3 10.34 -5 10 C-5 7.03 -5 4.06 -5 1 C-1 0 -1 0 0 0 Z " fill="#F4F7EB" transform="translate(24,35)"/>
<path d="M0 0 C1.98 0.66 3.96 1.32 6 2 C5.01 3.98 4.02 5.96 3 8 C0.03 7.505 0.03 7.505 -3 7 C-2.67 5.68 -2.34 4.36 -2 3 C-1.34 3 -0.68 3 0 3 C0 2.01 0 1.02 0 0 Z " fill="#0F1E05" transform="translate(52,40)"/>
<path d="M0 0 C1.5 1.3125 1.5 1.3125 3 3 C3 3.99 3 4.98 3 6 C2.01 6.66 1.02 7.32 0 8 C-0.72439252 10.38593418 -0.72439252 10.38593418 -1.0625 13.0625 C-1.47265625 15.78515625 -1.47265625 15.78515625 -2 18 C-2.66 18.33 -3.32 18.66 -4 19 C-3.67 16.69 -3.34 14.38 -3 12 C-3.66 12 -4.32 12 -5 12 C-3.84826645 9.53199953 -2.95216435 7.95216435 -1 6 C-0.60235737 4.01178687 -0.26224651 2.01055661 0 0 Z " fill="#060D03" transform="translate(56,19)"/>
<path d="M0 0 C0.99 0 1.98 0 3 0 C3 3.3 3 6.6 3 10 C1.68 10 0.36 10 -1 10 C-1.02689216 8.52093108 -1.04634621 7.04172517 -1.0625 5.5625 C-1.07410156 4.73878906 -1.08570313 3.91507813 -1.09765625 3.06640625 C-1 1 -1 1 0 0 Z " fill="#EBF0E1" transform="translate(11,34)"/>
<path d="M0 0 C2.5 1.3125 2.5 1.3125 5 3 C5 6 5 6 3.3125 7.75 C1 9 1 9 -1.75 8.6875 C-2.4925 8.460625 -3.235 8.23375 -4 8 C-3.67 7.34 -3.34 6.68 -3 6 C-2.34 6 -1.68 6 -1 6 C-0.67 4.02 -0.34 2.04 0 0 Z " fill="#DDE4D3" transform="translate(44,5)"/>
<path d="M0 0 C-1.5625 2.4375 -1.5625 2.4375 -4 5 C-7.75 5.8125 -7.75 5.8125 -11 6 C-8.60159776 0.46522561 -5.82500047 -0.25888891 0 0 Z " fill="#B9CBA1" transform="translate(16,20)"/>
<path d="M0 0 C1.32 0.33 2.64 0.66 4 1 C4 2.98 4 4.96 4 7 C2.35 7 0.7 7 -1 7 C-1.625 5.1875 -1.625 5.1875 -2 3 C-1.34 2.01 -0.68 1.02 0 0 Z " fill="#606557" transform="translate(56,31)"/>
<path d="M0 0 C2.97 0 5.94 0 9 0 C8 2 8 2 6.0625 2.875 C3.57998766 4.22909764 3.03128603 5.42178493 2 8 C1.34 7.67 0.68 7.34 0 7 C0 4.69 0 2.38 0 0 Z " fill="#303D27" transform="translate(24,28)"/>
<path d="M0 0 C2.475 0.495 2.475 0.495 5 1 C5 5.95 5 10.9 5 16 C3.35 15.01 1.7 14.02 0 13 C0.66 12.67 1.32 12.34 2 12 C2.66 12.33 3.32 12.66 4 13 C4 9.7 4 6.4 4 3 C2.68 3.33 1.36 3.66 0 4 C0 2.68 0 1.36 0 0 Z " fill="#A8B39B" transform="translate(19,45)"/>
<path d="M0 0 C2 2 2 2 2.25 4.5 C2 7 2 7 0 9 C-0.99 9 -1.98 9 -3 9 C-3.36923077 3.46153846 -3.36923077 3.46153846 -1.5 1.125 C-1.005 0.75375 -0.51 0.3825 0 0 Z " fill="#6D825C" transform="translate(53,15)"/>
<path d="M0 0 C0.66 0.33 1.32 0.66 2 1 C0.7934375 2.175625 0.7934375 2.175625 -0.4375 3.375 C-2.98690417 5.71982856 -2.98690417 5.71982856 -4 8 C-4.99 8 -5.98 8 -7 8 C-7 6.35 -7 4.7 -7 3 C-4.69631264 1.93347808 -2.35981813 0.93578995 0 0 Z " fill="#96AD78" transform="translate(11,26)"/>
<path d="M0 0 C1.98 0 3.96 0 6 0 C6.1875 2.375 6.1875 2.375 6 5 C5.01 5.66 4.02 6.32 3 7 C3 6.01 3 5.02 3 4 C2.34 4 1.68 4 1 4 C0.67 2.68 0.34 1.36 0 0 Z " fill="#BEC9B1" transform="translate(42,28)"/>
<path d="M0 0 C1.65 0 3.3 0 5 0 C5 1.98 5 3.96 5 6 C3.35 5.67 1.7 5.34 0 5 C0 3.35 0 1.7 0 0 Z " fill="#F9FBF5" transform="translate(19,20)"/>
<path d="M0 0 C0.66 0.33 1.32 0.66 2 1 C2 2.98 2 4.96 2 7 C0.35 7 -1.3 7 -3 7 C-2.25 2.25 -2.25 2.25 0 0 Z " fill="#6D8657" transform="translate(37,28)"/>
<path d="M0 0 C1.32 0.99 2.64 1.98 4 3 C3.67 3.66 3.34 4.32 3 5 C1 5 -1 5 -3 5 C-3.33 5.66 -3.66 6.32 -4 7 C-4.66 6.34 -5.32 5.68 -6 5 C-4.02 3.35 -2.04 1.7 0 0 Z " fill="#A5B395" transform="translate(50,9)"/>
<path d="M0 0 C0.33 0.66 0.66 1.32 1 2 C1.66 2.33 2.32 2.66 3 3 C1 6 1 6 -1.625 6.6875 C-2.800625 6.8421875 -2.800625 6.8421875 -4 7 C-2.92598892 4.08482708 -2.22189824 2.22189824 0 0 Z " fill="#B7C3A8" transform="translate(14,28)"/>
<path d="M0 0 C-2 2 -2 2 -4.1640625 2.1953125 C-5.38222656 2.16050781 -5.38222656 2.16050781 -6.625 2.125 C-7.44226562 2.10695312 -8.25953125 2.08890625 -9.1015625 2.0703125 C-9.72804687 2.04710937 -10.35453125 2.02390625 -11 2 C-11 1.34 -11 0.68 -11 0 C-3.375 -1.125 -3.375 -1.125 0 0 Z " fill="#39442A" transform="translate(42,47)"/>
<path d="M0 0 C3.49734228 0.38859359 6.65788261 0.88596087 10 2 C9.67 2.66 9.34 3.32 9 4 C8.236875 3.835 7.47375 3.67 6.6875 3.5 C3.96403764 2.90854604 3.96403764 2.90854604 1 3 C0.34 2.34 -0.32 1.68 -1 1 C-0.67 0.67 -0.34 0.34 0 0 Z " fill="#1C2811" transform="translate(48,38)"/>
<path d="M0 0 C0.66 0 1.32 0 2 0 C2 1.65 2 3.3 2 5 C2.66 5 3.32 5 4 5 C4 5.66 4 6.32 4 7 C2.68 7 1.36 7 0 7 C-0.38133299 5.0085944 -0.71325582 3.00720923 -1 1 C-0.67 0.67 -0.34 0.34 0 0 Z " fill="#8AA074" transform="translate(39,28)"/>
<path d="M0 0 C0.66 0.33 1.32 0.66 2 1 C1 3 0 5 -1 7 C-2.65 7 -4.3 7 -6 7 C-4.02 4.69 -2.04 2.38 0 0 Z " fill="#556D42" transform="translate(35,28)"/>
<path d="M0 0 C1.65 0.33 3.3 0.66 5 1 C5 2.98 5 4.96 5 7 C4.34 6.01 3.68 5.02 3 4 C1.68 4 0.36 4 -1 4 C-0.67 2.68 -0.34 1.36 0 0 Z " fill="#48503F" transform="translate(56,28)"/>
<path d="M0 0 C1.32 0 2.64 0 4 0 C4 1.65 4 3.3 4 5 C2.68 5 1.36 5 0 5 C0 3.35 0 1.7 0 0 Z " fill="#AEBD9D" transform="translate(19,27)"/>
<path d="M0 0 C1.5 1.125 1.5 1.125 3 3 C3.1875 6.1875 3.1875 6.1875 3 9 C2.01 8.67 1.02 8.34 0 8 C-1.125 2.25 -1.125 2.25 0 0 Z " fill="#435537" transform="translate(46,19)"/>
<path d="M0 0 C2.96175123 0.61277612 4.38058783 1.25372522 7 3 C7 3.66 7 4.32 7 5 C4.625 4.75 4.625 4.75 2 4 C0.6875 1.9375 0.6875 1.9375 0 0 Z " fill="#162605" transform="translate(39,51)"/>
<path d="M0 0 C1.65 0 3.3 0 5 0 C5 0.66 5 1.32 5 2 C5.66 2.33 6.32 2.66 7 3 C4.36 3 1.72 3 -1 3 C-0.67 2.01 -0.34 1.02 0 0 Z " fill="#D5DECA" transform="translate(26,25)"/>
<path d="M0 0 C0.33 0.66 0.66 1.32 1 2 C1.66 2 2.32 2 3 2 C3 2.66 3 3.32 3 4 C3.99 4 4.98 4 6 4 C5.67 4.99 5.34 5.98 5 7 C3.02 5.68 1.04 4.36 -1 3 C-0.67 2.01 -0.34 1.02 0 0 Z " fill="#464C3C" transform="translate(48,45)"/>
<path d="M0 0 C2.475 0.495 2.475 0.495 5 1 C4.67 2.32 4.34 3.64 4 5 C4 4.34 4 3.68 4 3 C2.68 3.33 1.36 3.66 0 4 C0 2.68 0 1.36 0 0 Z " fill="#C9D4BC" transform="translate(19,45)"/>
<path d="M0 0 C2.31 0.33 4.62 0.66 7 1 C6.67 2.65 6.34 4.3 6 6 C5.67 5.01 5.34 4.02 5 3 C3.35 2.67 1.7 2.34 0 2 C0 1.34 0 0.68 0 0 Z " fill="#444C3A" transform="translate(53,37)"/>
<path d="M0 0 C1.98 0 3.96 0 6 0 C5.01 1.485 5.01 1.485 4 3 C1.375 3.1875 1.375 3.1875 -1 3 C-0.67 2.01 -0.34 1.02 0 0 Z " fill="#C6D6B0" transform="translate(10,20)"/>
<path d="M0 0 C-1.6875 1.5625 -1.6875 1.5625 -4 3 C-6.75 2.6875 -6.75 2.6875 -9 2 C-8.67 1.34 -8.34 0.68 -8 0 C-4.71585695 -0.95067299 -3.30306592 -1.10102197 0 0 Z " fill="#CDD6C0" transform="translate(49,11)"/>
</svg>
